<svg id="Layer_1" data-name="Layer 1" xmlns="http://www.w3.org/2000/svg" viewBox="0 0 698.04 304"><defs><style>.cls-1{fill:#fff;}</style></defs><path class="cls-1" d="M97.14,207c.1-19.22,6.67-34.3,17.77-47.63A162.85,162.85,0,0,1,157,123.81a19.17,19.17,0,0,1,5.93-2.44c4.87-1,9.05,2.72,7.74,7.4-5.63,20.16,1.24,37.63,11.12,54.49,7.37,12.58,7.75,25.44,2.24,38.71-1.19,2.87-2.92,4.59-6.11,3.09-7.3-3.42-14.83-3.19-22.45-1.58-7.47,1.57-15.18,2.52-22.29,5.11a64.46,64.46,0,0,0-17,9.82c-3.67,2.83-5.75,2.91-8.62-.51C99.72,228.45,97.31,217.3,97.14,207Z" transform="translate(-97.14 -61.4)"/><path class="cls-1" d="M748.41,200.19c3.29,7.05,6.73,13.36,9.14,20a17.29,17.29,0,0,1,.27,10.62C745.21,268,732.27,305,719.4,342a10.16,10.16,0,0,1-.79,1.44H680c3-8.47,5.91-16.63,8.73-24.82q17.7-51.34,35.26-102.73c1.35-4,3.4-6.57,7.28-8.12C736.91,205.46,742.45,202.83,748.41,200.19Z" transform="translate(-97.14 -61.4)"/><path class="cls-1" d="M758.49,362.13c-3,.46-6,1.26-9,1.34-19.29.48-38.58.8-57.86,1.19-10.66.21-21.31.67-32,.67-20.42,0-40.85-.31-61.27-.31-19.46,0-38.92.35-58.38.32s-38.89-.56-58.34-.54c-23,0-45.92.47-68.88.55-29.43.1-58.86,0-88.29,0-20.95,0-41.9.05-62.85,0-20.26-.06-40.52-.34-60.77-.34-20,0-40,.22-59.94.36-4.06,0-7.79-.68-11.06-5.31,2.91-.66,5-1.52,7.15-1.57q27.66-.67,55.32-1.1c20.47-.33,40.93-.77,61.4-.84,40.25-.13,80.51,0,120.77,0h276.1q47.39,0,94.77,0c4.88,0,9.35,1,13.13,4C758.52,361.05,758.51,361.59,758.49,362.13Z" transform="translate(-97.14 -61.4)"/><path class="cls-1" d="M767.59,218.49c-3.71-8.22-7.25-16.09-10.81-23.94-3.45-7.62-4.6-8.06-12-4.71-5.75,2.6-11.59,5-17.23,7.83-3.16,1.59-4.77.76-6.36-2.14-3.75-6.85-7.69-13.61-11.7-20.31-1.66-2.76-1.5-4.9,1-6.94,9.5-7.58,18.88-15.33,28.55-22.68,1.44-1.09,4.56-1.15,6.37-.4,12.28,5.09,24.48,10.37,36.52,16a9.79,9.79,0,0,1,4.56,5.85c3,11.92,5.53,24,8.29,35.94,1.08,4.67-.1,7.38-5.22,8.67C782.24,213.49,775.08,216.12,767.59,218.49Z" transform="translate(-97.14 -61.4)"/><path class="cls-1" d="M704.1,185.28c3.93,6.83,7.66,12.73,10.72,19,.93,1.91.58,4.91-.14,7.09q-14.41,43.77-29.19,87.42c-4.64,13.68-9.76,27.2-14.49,40.85-1,2.93-2.34,4.22-5.62,4-5.14-.32-10.3-.08-16.16-.08C667.5,290.83,685.62,238.56,704.1,185.28Z" transform="translate(-97.14 -61.4)"/><path class="cls-1" d="M191,270.83l-74.51,13.32c-8-18.67,3.82-41,18.94-44,6.83-1.34,13.53-3.35,20.37-4.66,17.91-3.41,31.5,6.45,34.07,24.56C190.36,263.46,190.6,266.92,191,270.83Z" transform="translate(-97.14 -61.4)"/><path class="cls-1" d="M729.91,343.54c8.35-23.94,16.47-47.09,24.47-70.28,4.44-12.86,8.79-25.75,12.92-38.71,1.2-3.74,3.19-5.87,7-6.85,5.12-1.32,10.14-3,15.87-4.76a30.58,30.58,0,0,1-.74,4.07q-19.32,56.48-38.66,113c-.85,2.48-1.85,3.83-4.84,3.66C740.77,343.32,735.61,343.54,729.91,343.54Z" transform="translate(-97.14 -61.4)"/><path class="cls-1" d="M378.08,302.42c1-6.33,1.36-12.81,3-18.94a98.11,98.11,0,0,1,7.55-19.3c1.26-2.41,5-4.67,7.78-4.86a8,8,0,0,1,8.35,6.59c1.42,8,2.29,16,3.18,24.08,1.09,9.9,2.1,19.82,2.83,29.75.17,2.21-1,4.51-1.51,6.77-2.52-1.37-6.41-2.14-7.29-4.2-2.64-6.17-5.23-12.75-5.77-19.33-.91-11.21-.25-22.55-.25-33.84l-2.12-.36c-1.61,4.4-3.79,8.68-4.74,13.22-2.32,11.05-4.18,22.21-6,33.36a15.26,15.26,0,0,1-7.41,11.21c-2.94,1.82-5.16,1.13-6.52-1.81a25.41,25.41,0,0,1-2-6.65c-4.36-28.79-3.26-57.8-3.08-86.76,0-1.6,1.6-4.4,2.65-4.5a6.7,6.7,0,0,1,5.3,2.41,14.46,14.46,0,0,1,1.93,7c1.13,21.27,2.1,42.55,3.12,63.82,0,.76.13,1.51.2,2.26Z" transform="translate(-97.14 -61.4)"/><path class="cls-1" d="M474.63,192.63c1.77-7.91,3.09-16,5.46-23.69a52.9,52.9,0,0,1,7.26-14.58c1.65-2.33,5.32-4.45,8.1-4.48a8.11,8.11,0,0,1,8,7.07c1,7.52,1.47,15.12,1.92,22.71.62,10.43,1.13,20.87,1.44,31.31.07,2.14-.93,4.31-1.43,6.47-2.2-.88-5.7-1.2-6.36-2.75-2.51-5.84-5.25-12-5.77-18.18-.79-9.38.22-18.91.43-28.37.07-2.8,0-5.6,0-8.4l-1.2-.54c-1.84,4.21-4.22,8.28-5.4,12.67-2.67,9.93-4.53,20.08-7.17,30a35,35,0,0,1-5.23,11.45c-1.37,1.87-5,3.42-7.18,2.94-1.67-.38-3.34-4-3.69-6.38a118.94,118.94,0,0,1-1.61-19.37c.44-23.29,1.21-46.58,2.1-69.86.07-1.7,2.05-4.7,3.13-4.69a7.11,7.11,0,0,1,5.34,3.14c1.16,2.19,1.29,5.11,1.3,7.72.09,22,.05,43.93.05,65.9Z" transform="translate(-97.14 -61.4)"/><path class="cls-1" d="M195.28,308.57c1.33,11.75,2.61,23.06,3.92,34.69H126.72c-1.51-7.94-3-15.89-4.68-24.59Z" transform="translate(-97.14 -61.4)"/><path class="cls-1" d="M498.52,273.08c1.3-13,2.71-26.71,4-40.41.31-3.31,1.14-6.2,5-6s4.61,3.42,4.51,6.53c-.45,14-1.49,28-1.49,41.92,0,15.14.92,30.28,1.42,45.42.11,3.55-.27,7-4.93,7.09s-5.88-2.87-5.95-6.91c-.05-2.95-.39-5.9-.64-9.31-11.72,1.46-22-1.47-31.5-7.09-11.1-6.54-14.79-16.78-10.59-29,3.24-9.46,12.12-14.31,21.94-11C486.67,266.45,492.5,270.11,498.52,273.08Zm.88,31.37c3.16-15.91-10.39-27.14-24-27.88-5.25-.29-8,2.21-8.65,7.44-.59,4.47,1.47,7.66,4.83,10.24C479.73,300.53,489.26,303,499.4,304.45Z" transform="translate(-97.14 -61.4)"/><path class="cls-1" d="M307,254.93c-2-.87-4.28-1.42-6-2.68-4-2.94-8.38-4.57-13-2.57-2.32,1-5,3.29-5.56,5.49-.37,1.45,2.32,4.57,4.33,5.61,9.26,4.76,16.24,11.61,20.45,21.06,5.34,12,6.35,24.12-.78,35.81-5.15,8.44-17.77,12.51-26.29,8.92-9.57-4-16-15.93-13.63-25.71.36-1.48,2.17-2.61,3.3-3.9l1.33.81c.25,3.1.4,6.22.77,9.31.94,8,5,11.85,12.14,11.6,7.44-.27,13.6-5.92,14-12.92.79-15.58-6.44-26.36-20.11-33.16-5.59-2.78-10-6.61-11.84-12.76-2.17-7.33.6-14.82,7.09-19.83a20.62,20.62,0,0,1,22.57-1.36c5.71,3.41,9.35,8.7,12.41,14.37Z" transform="translate(-97.14 -61.4)"/><path class="cls-1" d="M234.48,141.41c5.13-4.34,9.62-9.1,15-12.49,10.39-6.55,20.17-1.36,20.31,10.92a46.54,46.54,0,0,1-3.37,18.41c-7.84,18.27-16.34,36.27-25.18,54.09-1.28,2.58-5.69,4.51-8.86,4.85-1.42.16-4.44-4.17-4.87-6.78-3.73-22.85-5.69-45.85-4.23-69,.06-1,0-2.23.58-2.89,1.52-1.77,3.13-4.11,5.11-4.6,1.09-.27,3.17,2.57,4.47,4.26C234.16,139.1,234.23,140.57,234.48,141.41Zm3,56.51,2,.53c7.24-16,14.65-31.85,21.6-47.93,1.52-3.52,1.83-7.73,1.92-11.64.08-3.72-2.2-5.29-6-4-10.69,3.58-22.14,20.25-21.46,31.37Q236.44,182.08,237.43,197.92Z" transform="translate(-97.14 -61.4)"/><path class="cls-1" d="M406.06,141.14c-2-1-4.25-1.8-5.94-3.22-4.22-3.54-8.91-4.72-13.89-2.6-2,.86-4.36,3.09-4.75,5.05-.28,1.49,1.92,4.19,3.67,5.21a45.72,45.72,0,0,1,17.34,16.83c8.13,14.09,7.9,31.29-.67,42.39-5.74,7.45-18.49,10.36-26.73,6.11-8.82-4.56-14.59-17.55-11.48-26.36.44-1.23,2.2-2,3.34-3a18.1,18.1,0,0,1,1.54,3.93,43.56,43.56,0,0,1,0,5c.32,8.35,4.32,13,11.23,13.18,8,.17,14.51-5.21,15.14-12.83,1.18-14.34-4.67-25.14-16.92-32.59a42.21,42.21,0,0,1-7.35-5.1c-7.11-6.82-7.86-17.05-2.07-24.37a21,21,0,0,1,27-4.74C400.44,127.09,406,134.76,406.06,141.14Z" transform="translate(-97.14 -61.4)"/><path class="cls-1" d="M534.8,304.38c.71,2.3,1.06,3.94,1.7,5.45,1.62,3.84,4,6.9,8.43,7.74,4.54.86,6.71-2.49,8.72-5.42A125.67,125.67,0,0,0,560,300.87c1.79-3.31,1.93-3.41,6.33-2.37-4.35,10.18-8.29,20.46-17.82,26.95-7.57,5.16-18.41,2.54-23.74-5.34-5.95-8.79-6.46-18.77-5.53-28.82.87-9.37,3.45-18.31,9.72-25.71,9.76-11.53,25.39-10.57,33.25,1.94,4.48,7.12,2.56,14-1.6,20.08C554.57,296.51,546.46,302.91,534.8,304.38Zm-.59-5.13c10.78.53,24.46-12.92,23.92-23.26A8.31,8.31,0,0,0,546,269.26a19.29,19.29,0,0,0-7.16,6.59C534.45,283,533.25,291,534.21,299.25Z" transform="translate(-97.14 -61.4)"/><path class="cls-1" d="M528.83,197.12a55,55,0,0,0,2.27,7c3.6,7.61,10.35,8.55,15.58,2,2.78-3.48,4.75-7.6,7.37-11.22,1.19-1.65,3.08-2.78,4.65-4.14l1.59,1.42c-.76,1.88-1.25,3.95-2.34,5.62-3.83,5.8-7.26,12-12,17-8.77,9.37-22.81,7-28.86-4.34-7.67-14.31-3.43-42,8.15-53.35,10.59-10.32,25.39-8.65,32.55,3.7,3.79,6.54,2.59,14.55-3.25,21.7C548.45,190.06,541.3,194.14,528.83,197.12Zm.3-4.62c10.84-2.68,19.15-7.93,23.51-18.27,1.78-4.22,1.52-8.11-2.49-11.06s-7.78-2.06-11.5.48C531.76,168.36,526.6,183.36,529.13,192.5Z" transform="translate(-97.14 -61.4)"/><path class="cls-1" d="M635.75,201.87c2.23,4.35,3.5,8.31,6,11.28,3.27,4,7.85,3.85,11.17,0s5.75-8.1,8.57-12.19c.84-1.22,1.45-2.7,2.55-3.59a3.8,3.8,0,0,1,3.12-.22c.4.13.75,1.87.43,2.54-4.36,8.82-8.74,17.74-17.14,23.52a17.11,17.11,0,0,1-24.28-5.77,41.5,41.5,0,0,1-4.79-15.5c-1.19-11.12.6-22.1,6.49-31.71a35.22,35.22,0,0,1,11.63-11.81c11.15-6.5,24.22-.83,27.79,11.64,2.45,8.53-1.87,15.29-7.66,20.91C653.44,196.9,646.45,201.68,635.75,201.87Zm.39-4.51c11.65-.62,23.62-10.91,25.08-20.93a8.27,8.27,0,0,0-11-9.16,15.83,15.83,0,0,0-6.51,4.29C637.66,178.94,635.91,187.7,636.14,197.36Z" transform="translate(-97.14 -61.4)"/><path class="cls-1" d="M288.1,194.5c1.71,3.54,2.73,6.91,4.74,9.51,3.83,4.94,9.18,5,12.94,0,3-3.93,5-8.56,7.74-12.73,1.09-1.68,2.79-3,4.21-4.43l1.29.83c0,1.08.41,2.4-.06,3.2-4.29,7.25-7.93,15.09-13.31,21.43-7.51,8.86-21,7.33-27.29-2.52a33,33,0,0,1-4.91-12.88c-1.61-11.83-1.2-23.75,4.79-34.47a36.26,36.26,0,0,1,10-11.43c8.06-5.84,17.12-4.67,24.05,2s8,14.94,2.64,23.53C309,186.06,300.58,192.53,288.1,194.5Zm-.21-5c11.09-.76,22.93-12,24-22.1a8.43,8.43,0,0,0-7.46-9c-4.67-.54-8.11,1.83-10.62,5.3C288.32,171.33,287,180,287.89,189.51Z" transform="translate(-97.14 -61.4)"/><path class="cls-1" d="M429.34,100.62c8.55-2.58,8.53-2.58,8.55-12.16,0-4.83.11-9.66.13-14.49,0-3.24-1-5.37-4.85-5.5-1.41,0-2.76-1.66-4.14-2.56,1.46-.74,2.86-2,4.37-2.13,6.62-.54,13.26-.86,19.91-1.05,8-.22,13.28,11,9,18.84-1.19,2.19-3.56,5.27-2.85,6.65,2,3.85,5.16,7.1,8.09,10.4.8.9,2.35,1.15,4.09,1.93-.47-1.84-1.57-3.65-1.07-4.71a12.63,12.63,0,0,1,4.43-5c.45-.29,3.67,2,3.94,3.45.65,3.51,2.11,5.52,5.72,5.65a8.58,8.58,0,0,0,8.91-6c1.08-3.12.7-6.65-2.88-8.67s-7-3.76-10.34-5.91a8.94,8.94,0,0,1-2.57-12.65c3.23-4.3,12.14-7,15.11-4.15,1.25,1.22,1,4,1.39,6.07a39.16,39.16,0,0,1-5,.69c-1.4,0-2.87-.76-4.19-.53-.84.15-1.68,1.42-2.07,2.37-.12.32,1.1,1.4,1.88,1.8,3.52,1.82,7,3.74,10.69,5.23,9.66,3.91,8.71,19.82.25,24-7.2,3.58-14.05,4.82-21.29.63-.71-.41-1.71-1.3-2.16-1.09-11.54,5.42-15.4-4.14-20.73-10.64-1.22-1.49-1.83-3.47-2.72-5.22l-2.91,1.76c0,2.88-.85,6.15.24,8.54s4.13,4,6.69,6.34C445.42,104.61,433.13,103.55,429.34,100.62ZM449,70.21c-5.29.29-3.6,4.63-3.91,7.78-.27,2.81.51,5,3.94,4.9,5.12-.13,7.19-1.88,7.09-6C456,72.57,453.55,70.15,449,70.21Z" transform="translate(-97.14 -61.4)"/><path class="cls-1" d="M410.76,191.65c1.49-13.88,3.77-25.76,11.13-35.93,6.87-9.51,17.31-12.59,27.21-8.14,4.41,2,8,5,8.11,10.37,0,1.23-1.2,2.49-1.85,3.74a34.54,34.54,0,0,1-3-2c-1.68-1.34-3.12-3.06-4.94-4.13-4.2-2.48-8.46-1.45-11.35,2.32-8.86,11.59-10.66,24.88-8.75,38.77.35,2.53,3.19,5.47,5.65,6.78,3.33,1.78,6.42-.38,8.47-3.34,1.7-2.46,3-5.16,4.78-7.58.54-.76,1.86-1,2.82-1.42.4,1,1.15,2,1.14,3-.13,9-10.77,20.45-19.63,21.35-6.1.62-13.4-3.88-16.36-11C412.28,200,411.6,195,410.76,191.65Z" transform="translate(-97.14 -61.4)"/><path class="cls-1" d="M352.74,302.55c.29,1.19,1.19,2.67.78,3.5-2.89,5.88-4.89,12.82-9.37,17.15C333.67,333.34,318.58,327,315.44,311a55.62,55.62,0,0,1,9.63-44.5c7.47-10.38,22.51-11.77,30.73-3.53,3.88,3.9,4.08,7.13.54,10.45A70.26,70.26,0,0,0,350,268c-4.73-3.19-9.6-2-12.77,2.66-7.92,11.59-8.93,24.54-6.74,37.76.49,2.92,3.86,6.33,6.75,7.63,3.65,1.65,6.41-1.73,8.35-4.76s3.54-6.11,5.3-9.18Z" transform="translate(-97.14 -61.4)"/><path class="cls-1" d="M445.94,316.06l4.46-1.75c.73,4.84-3.54,11.93-7.68,13.1s-6.9-.37-7.51-5.4a236,236,0,0,1-2.1-27.31c0-20,.46-39.94,1-59.9.1-3.56-.13-8.78,4.83-9,4.69-.2,5.87,4.72,6,8.42.58,15.45.79,30.91,1,46.37C446.06,292.23,445.94,303.86,445.94,316.06Z" transform="translate(-97.14 -61.4)"/><path class="cls-1" d="M596.29,209.31c3.53-10.31,7-20.63,10.61-30.92,2-5.8,4-11.63,6.26-17.32.83-2,2.59-3.72,3.92-5.56l1.61.76a44.85,44.85,0,0,1-1,5.46c-4.23,13.79-8.3,27.64-12.93,41.3-1.84,5.44-5,10.41-7.47,15.66a7.23,7.23,0,0,1-8.15,4.34c-2.12-.46-4.55-3.35-5.3-5.65-5.67-17.48-11-35.07-16.29-52.69a18.59,18.59,0,0,1-.25-7.9,6,6,0,0,1,2.95-4c.8-.36,3.08,1.14,3.83,2.35a47.27,47.27,0,0,1,4,8.5c5,13.69,10,27.44,15,41.15.55,1.51,1.29,3,1.95,4.42Z" transform="translate(-97.14 -61.4)"/><path class="cls-1" d="M117.68,295.08l74.43-13.3c.7,5.43,1.38,10.74,2.12,16.61l-74,10.17C119.41,304.08,118.61,299.91,117.68,295.08Z" transform="translate(-97.14 -61.4)"/><path class="cls-1" d="M584.78,274.62c3.69-4.36,7.24-9.41,11.64-13.55,6.11-5.76,10.28-4.2,12.24,3.91,1.85,7.69,1.8,14.59-.37,20.6-6.38-5.9-2.31-14.69-6.29-20.89-8.22,3.51-16.62,18.78-15.27,27.46q2.17,14.06,4.14,28.12c.5,3.58.06,6.57-4.5,7.43s-6.67-1-7.23-5.15c-2.69-19.94-5.37-39.88-7.84-59.85-.15-1.2,1.54-3.67,2.52-3.75,1.94-.15,5.15.37,5.76,1.63C581.82,265.15,583.19,270.13,584.78,274.62Z" transform="translate(-97.14 -61.4)"/><path class="cls-1" d="M350.19,98.63c3-.7,6-2,8.91-1.95,3.44.09,3.95-1.35,3.91-4.09-.06-5.64-.11-11.27,0-16.91.08-3.71-1-5.69-5.21-5-1.65.26-3.45-.5-5.19-.79l-.46-1.94c2.82-1.06,5.58-2.68,8.49-3,4.86-.58,9.83-.21,14.75-.48,11.8-.65,21.87,9.44,18.78,19.92-.83,2.81-.63,6-1.6,8.7-1.58,4.48-4.47,7.43-9.86,7.66-8.73.38-17.42,1.45-26.15,1.93-2,.11-4-1-6-1.57Zm19.62-15.18H370a78.29,78.29,0,0,0,.12,9.45c.15,1.23,1.6,3.12,2.67,3.27,7.38,1,14-5.08,14.05-12.72a12,12,0,0,0-12.91-12.06c-2.95.14-4.65,1.12-4.14,4.6A51.54,51.54,0,0,1,369.81,83.45Z" transform="translate(-97.14 -61.4)"/><path class="cls-1" d="M292.83,102.59H276.19c5.4-4.56,4-10.19,3.77-16.42-4.83-.25-9.56-.7-14.28-.6-1.06,0-2.79,1.87-3,3.07-.79,4.92-1.72,10.12,5.15,12.79l-1.14,1c-4.62,0-9.25.08-13.87-.09a2.69,2.69,0,0,1-1.76-2c0-.94.9-1.88,1.48-2.77.83-1.26,2.45-2.45,2.48-3.71.23-8.27.12-16.56.12-24.85l-5-1.94c.83-1.08,1.47-2.73,2.23-2.79,4.56-.34,9.14-.37,13.71-.33.49,0,1.49,1.27,1.36,1.67-.32,1-1,2.43-1.8,2.61-6,1.38-3,5.73-2.9,8.89.16,3.84,3.34,3.41,6,3.46a13.9,13.9,0,0,0,2.49.09c3.18-.5,8.53-.3,9.09-1.82,1.55-4.22,1.06-9.17-3.09-12.5,2.51-3.83,12.94-2.72,16,1.92-7.24,1.16-5.84,6.36-5.59,11.3a79.5,79.5,0,0,1-.59,9.85c-.37,5.11-.85,10.25,6.86,11.39Z" transform="translate(-97.14 -61.4)"/><path class="cls-1" d="M563.42,80.52c-1.69-5.31-3.12-9.31-4.16-13.41-.26-1,.87-3.35,1.17-3.32,4.23.44,8.44,1.13,12.62,1.95.51.1.82,1.29,1.54,2.49-7.09.88-5.68,6-5.73,10.45-.05,3.46-.53,6.91-.62,10.37-.12,5-1.16,10.57,6.61,12.18-6.16,3.81-11.8,1-17.59,1.29C562.08,97.7,564.17,91,560.12,87c-2.71-2.69-10.11-1.52-15.16-.64-2.79.49-1.05,10.15,3.13,16-4.93,0-9.64.43-14.21-.18-2.41-.32-2.91-3.22-.43-4.33,3.85-1.72,3-4.59,2.92-7.54a149.88,149.88,0,0,1-.07-15.86c.3-3.77.56-6.81-6-6.94,2.37-1.94,3.41-3.5,4.57-3.6a94.64,94.64,0,0,1,11.79-.06,3.48,3.48,0,0,1,2.06,1.58c-.48,1.09-1.18,2.63-2.1,2.88-6.06,1.63-2.49,6-2.38,9.07,0,1.11,3.16,2.8,5,3C553.24,80.84,557.32,80.52,563.42,80.52Z" transform="translate(-97.14 -61.4)"/><path class="cls-1" d="M595.47,102.5c-14.92-.11-17.67-7.81-19-19.94-1.21-10.7,7.66-18.88,18.47-18.9,11.71,0,20.32,8.42,20.21,15.81C614.92,93.57,607.43,102.54,595.47,102.5Zm11.45-17.32c1-6.14-2.63-10.21-6.73-13.62C595,67.24,589.34,68.92,586.66,75c-3.59,8.19-2,14.2,5.28,20.2,3.5,2.9,7,2.8,10.48.3A10.07,10.07,0,0,0,606.92,85.18Z" transform="translate(-97.14 -61.4)"/><path class="cls-1" d="M636.81,102.5c-15,.13-18.23-8-19.25-20.14-.92-10.88,7.69-18.82,18.61-18.67,11.09.16,20,7.28,19.93,16C656,93.54,648.39,102.58,636.81,102.5Zm12.1-17.15c-.08-6.51-3.69-10.55-7.85-13.9-5-4-10.66-2.38-13.23,3.34-3.76,8.34-2.5,13.76,4.6,19.87,4.46,3.84,8.85,3.88,12.56-.67C646.92,91.62,647.64,88.26,648.91,85.35Z" transform="translate(-97.14 -61.4)"/><path class="cls-1" d="M201.17,71.37c4.48,2.34,8.53,4.88,12.89,6.64,10.08,4.07,9.07,20.1.34,24.34-5.77,2.81-11.43,4.24-17.7,2.22-4.19-1.36-7.19-4.16-7.27-8.42,0-1.82,2.77-3.71,4.28-5.56,1.44,1.22,4,2.35,4.1,3.68.4,4.81,3.22,5.87,7.12,5.57,4.16-.32,8.33-4.73,7.85-8.26-.39-3-1.06-5.78-4.51-7a36.58,36.58,0,0,1-6.47-3.63c-6.71-4.2-8.06-7-6.14-12.24,1.44-4,8.19-7.88,13.13-7a7.77,7.77,0,0,1,4.6,3.56c.54.93-.33,3.27-1.29,4.29-.6.65-2.81.51-3.83-.08C205.19,67.66,203.11,68.28,201.17,71.37Z" transform="translate(-97.14 -61.4)"/><path class="cls-1" d="M425.5,94.38c-1.6,5.5-3.42,9.15-9.64,8.21-4.81-.74-9.91.54-14.88.63-1.62,0-3.24-.86-5.15-1.41.77-1.28.9-1.76,1.11-1.81,6-1.22,7.84-4.5,6.81-10.67-.77-4.65.26-9.6.39-14.42.07-2.58.69-5.45-3.52-5.74-1-.06-1.81-2.14-2.71-3.3l.59-1.46c2.73,0,5.47,0,8.2,0s5.66.18,8.49.08c8.17-.3,8.17-.34,10.92,9.94-2.91-1.5-4.84-3-7-3.47-2.32-.5-6.75-.58-6.95.12-.93,3.19-.7,6.71-.89,10.12,2.18,0,4.36,0,6.54,0a15.31,15.31,0,0,1,3.31.16,51.37,51.37,0,0,1,.14,6.21c-1.19,0-2.38-.11-3.58-.1-2.31,0-4.62.06-6.94.09.09,2.43-.56,5.29.52,7.13.79,1.34,3.91,1.93,5.92,1.8C420,96.29,422.73,95.12,425.5,94.38Z" transform="translate(-97.14 -61.4)"/><path class="cls-1" d="M428,320.29a3,3,0,0,1,0,1.59c-.65,2-1.53,3.87-2.32,5.79-2-1.43-5.11-2.5-5.67-4.36a66.21,66.21,0,0,1-2.68-15.58c-.56-10.73-.67-21.5-.71-32.25,0-2.43-.2-6.27,3.59-5.76,1.81.24,4.32,3.11,4.65,5.09.94,5.68.92,11.52,1.29,17.29C426.78,301.2,427.38,310.3,428,320.29Z" transform="translate(-97.14 -61.4)"/><path class="cls-1" d="M681.36,66.86c-.91,1.19-1.08,1.64-1.32,1.69-10.3,2.1-7.58,10.89-9,17.53a16.17,16.17,0,0,0,0,3.48c0,7.22,3,9.1,9.75,5.91,3.17-1.49,6.1-3.47,9.44-5.41.18,8.23-3.79,12.42-10.92,12.49-6.09.06-12.17.3-18.26.32-.93,0-1.87-.77-2.81-1.18.49-1.11.82-3,1.52-3.18,4.63-1,4.1-4.38,4.2-7.74.13-4.15,1-8.3.77-12.42a18.64,18.64,0,0,0-2.53-8.15c-1.87-3.2-1.54-5.36,1.94-5.59a103.79,103.79,0,0,1,13,0C678.43,64.73,679.71,66,681.36,66.86Z" transform="translate(-97.14 -61.4)"/><path class="cls-1" d="M339.3,67.26c-.68.81-.95,1.46-1.3,1.51-10.26,1.58-7.25,10.29-8.83,16.48a18.6,18.6,0,0,0-.05,4.48c0,7,2.75,8.82,9.4,5.86,2.54-1.13,4.79-2.92,7.23-4.3a10.85,10.85,0,0,1,2.63-.71c-.27,8.28-3.82,11.92-11.16,12-5.92,0-11.83.23-17.75.2-1.08,0-2.16-.74-3.24-1.14.56-1.09.95-3,1.71-3.13,4.69-1,4-4.52,4.09-7.82.14-3.81,1-7.66.66-11.41a28.2,28.2,0,0,0-2.84-9.45c-1.18-2.46-1.32-4.72,1.36-5a101.64,101.64,0,0,1,15.41,0C337.54,64.88,338.39,66.4,339.3,67.26Z" transform="translate(-97.14 -61.4)"/><path class="cls-1" d="M528.58,89.83a13.09,13.09,0,0,1-11.13,14c-5.36.92-9.58-1.85-10.92-8.21-1.69-8-3.2-16.23,1.59-24,3.59-5.83,11.33-9.95,17.73-8.41,1.17.29,2.65,3.54,2.26,5-.46,1.71-3.3,4.41-4.18,4.1-6.12-2.21-9.19,1-11.47,5.72-1.88,3.85-.54,15.45,2.51,17,2,1,5.46,0,8-.81C524.84,93.5,526.29,91.66,528.58,89.83Z" transform="translate(-97.14 -61.4)"/><path class="cls-1" d="M247.36,90a13,13,0,0,1-10.68,13.67c-5.57,1-9.86-1.53-11.3-7.62-1.94-8.24-3.28-16.56,1.53-24.53,3.47-5.74,11.32-9.87,17.73-8.35,1.12.26,2.58,3.2,2.24,4.49-.47,1.82-2.73,4.76-3.74,4.57-3.85-.7-7.06-1-9.88,2.42-3.23,3.87-3.13,8.19-2.4,12.72a3.87,3.87,0,0,0,.12,1c1.25,2.61,2.07,6.89,3.9,7.38,2.37.64,5.6-1.66,8.37-2.88A28.91,28.91,0,0,0,247.36,90Z" transform="translate(-97.14 -61.4)"/><path class="cls-1" d="M782.77,149.4,751.3,135.83c7-5.62,13.51-11,20.24-15.91.78-.57,4.23.59,4.47,1.48C778.41,130.27,780.39,139.25,782.77,149.4Z" transform="translate(-97.14 -61.4)"/><path class="cls-1" d="M296.74,64.66c6.07,1.48,12.14-3.33,18.24,1.78l-6.06,2.77c.26,4.45.59,9.16.8,13.88.12,3,.53,6,0,8.92s-.78,5.1,2.77,6c.67.18,1.6,1.68,1.41,2.23-.3.89-1.41,2.07-2.22,2.11-4.49.2-9,.1-14.73.1,7.22-5.54,4.94-12.76,5-19.37C302,76.76,303.3,69.85,296.74,64.66Z" transform="translate(-97.14 -61.4)"/><path class="cls-1" d="M697.32,81.46c1.66-.54,3.3-1.47,5-1.55,13.08-.57,26.17-1.06,39.27-1.34,1.46,0,3,1.36,4.45,2.1-1.28,1.29-2.38,3.4-3.87,3.71a95,95,0,0,1-14.74,1.93,201.26,201.26,0,0,1-21.41.18c-3.07-.17-6-2-9-3.13Z" transform="translate(-97.14 -61.4)"/><path class="cls-1" d="M131.13,81.58c1.79-.59,3.55-1.61,5.36-1.69,12.95-.59,25.9-1.07,38.85-1.32,1.54,0,3.12,1.58,4.67,2.43-1.41,1.21-2.7,3.23-4.26,3.48-6.21,1-12.5,1.63-18.78,2a118.53,118.53,0,0,1-17,0c-3.13-.26-6.13-2-9.19-3Z" transform="translate(-97.14 -61.4)"/><path class="cls-1" d="M427,262.29c-2.7,1.12-4.24,2.31-5.65,2.16-.93-.1-2.36-2.17-2.27-3.25s2.18-3.23,2.61-3.05C423.32,258.84,424.6,260.28,427,262.29Z" transform="translate(-97.14 -61.4)"/></svg>